<?xml version="1.0" encoding="UTF-8" standalone="yes"?>
<!-- Created with Inkscape (http://www.inkscape.org/) --><svg id="svg1" version="1.1" viewBox="0 0 119.25619 117.89194" xmlns="http://www.w3.org/2000/svg" xmlns:svg="http://www.w3.org/2000/svg">
  <defs id="defs1"></defs>
  <g id="layer1" transform="translate(-60.019817,-32.780727)">
    <g id="g40" transform="rotate(-10.875216,242.16604,-242.89445)">
      <path d="M 34.957592,59.396971 25.908902,42.60705 7.2206345,38.795365 20.3926,25.001179 18.242735,6.0497045 35.432147,14.31435 52.791726,6.4133797 50.243401,25.315398 63.122075,39.383804 44.357712,42.801248 Z" id="path32" style="fill:none;fill-opacity:0.528774;stroke:#ff9955;stroke-width:4.59999;stroke-linecap:round;paint-order:stroke fill markers"></path>
      <path d="M 34.957592,59.396971 25.908902,42.60705 7.2206345,38.795365 20.3926,25.001179 18.242735,6.0497045 35.432147,14.31435 52.791726,6.4133797 50.243401,25.315398 63.122075,39.383804 44.357712,42.801248 Z" id="path32-3" style="fill:none;fill-opacity:0.528774;stroke:#ff9955;stroke-width:4.59999;stroke-linecap:round;paint-order:stroke fill markers" transform="rotate(90,59.046417,63.472629)"></path>
      <path d="M 34.957592,59.396971 25.908902,42.60705 7.2206345,38.795365 20.3926,25.001179 18.242735,6.0497045 35.432147,14.31435 52.791726,6.4133797 50.243401,25.315398 63.122075,39.383804 44.357712,42.801248 Z" id="path32-6" style="fill:none;fill-opacity:0.528774;stroke:#ff9955;stroke-width:4.59999;stroke-linecap:round;paint-order:stroke fill markers" transform="rotate(-175.30157,59.213619,62.484397)"></path>
      <path d="M 34.957592,59.396971 25.908902,42.60705 7.2206345,38.795365 20.3926,25.001179 18.242735,6.0497045 35.432147,14.31435 52.791726,6.4133797 50.243401,25.315398 63.122075,39.383804 44.357712,42.801248 Z" id="path32-3-1" style="fill:none;fill-opacity:0.528774;stroke:#ff9955;stroke-width:4.59999;stroke-linecap:round;paint-order:stroke fill markers" transform="rotate(-85.301575,58.190263,62.267768)"></path>
      <path d="m 178.89245,295.07711 c -13.50463,-9.32218 -25.28521,-17.37253 -26.17907,-17.88968 -1.18434,-0.68522 -2.37831,-8.60925 -4.40147,-29.2114 l -2.77627,-28.27112 14.06865,-24.84494 14.06864,-24.84494 30.67132,-5.52274 c 16.86923,-3.0375 31.2744,-5.5124 32.0115,-5.49976 1.57912,0.0271 52.87226,28.87204 55.21439,31.05009 0.93141,0.86617 3.94087,14.35943 7.19775,32.27195 l 5.59708,30.7834 -16.99604,25.15883 c -9.34782,13.83735 -17.58527,25.78274 -18.30545,26.54531 -1.09294,1.15726 -57.14462,7.58053 -63.73352,7.30357 -1.03601,-0.0435 -12.93289,-7.70641 -26.43751,-17.02857 z" id="path36" style="fill:#ff6600;fill-opacity:0.528774;stroke:#ff9955;stroke-width:20.3281;stroke-linecap:round;paint-order:stroke fill markers" transform="scale(0.26458333)"></path>
      <path d="m 315.09642,208.64342 c -2.81065,-15.71841 -5.42297,-29.08487 -5.80515,-29.70326 -0.38218,-0.61837 -11.98901,-7.52487 -25.79297,-15.34777 -13.80395,-7.82289 -25.20605,-14.30938 -25.33799,-14.41442 -0.13194,-0.10504 11.50859,-6.48457 25.86786,-14.17673 l 26.10775,-13.98576 5.593,-27.476945 c 3.07614,-15.11232 5.92402,-28.131525 6.32862,-28.931567 0.47082,-0.931002 8.27123,5.698001 21.66956,18.415399 17.21101,16.336297 21.53713,19.870023 24.32567,19.870023 1.86545,0 14.97157,-1.35061 29.12471,-3.001352 14.15314,-1.650742 25.96736,-2.766965 26.25384,-2.480496 0.28646,0.286469 -5.02755,12.076258 -11.80893,26.199528 -6.78137,14.12327 -12.32977,26.25159 -12.32977,26.95183 0,0.70024 5.29351,12.94142 11.76336,27.20263 6.46984,14.2612 11.54884,26.14396 11.28666,26.40615 -0.37747,0.37747 -44.33957,-5.15011 -55.43042,-6.96955 -2.59562,-0.42581 -4.86615,1.47368 -35.51644,29.71245 l -11.18909,10.30875 z" id="path37" style="fill:#ff6600;fill-opacity:0.528774;stroke:#ff9955;stroke-width:20.3281;stroke-linecap:round;paint-order:stroke fill markers" transform="scale(0.26458333)"></path>
      <path d="m 129.5233,199.63344 c -0.61105,-0.79676 -6.54078,-11.56784 -13.17718,-23.93572 -6.6364,-12.36787 -12.90454,-22.74809 -13.92919,-23.06715 -1.02465,-0.31906 -13.701476,-2.97349 -28.170718,-5.89873 -14.469242,-2.92525 -26.833867,-5.49287 -27.476945,-5.70582 -0.643077,-0.21296 5.137018,-6.90707 12.844656,-14.8758 7.707638,-7.96872 16.991498,-17.64552 20.6308,-21.50398 L 86.861636,97.630846 83.503959,68.984669 C 81.657239,53.229273 80.265692,40.013911 80.411635,39.6172 c 0.145944,-0.396711 12.236678,5.004173 26.868295,12.001964 l 26.60295,12.723258 26.5971,-12.122538 c 14.6284,-6.667396 26.77682,-11.976238 26.9965,-11.797427 0.21967,0.178812 -1.32307,13.443463 -3.42832,29.477003 l -3.82772,29.15189 19.6316,21.32033 c 10.79738,11.72619 19.18013,21.71056 18.62834,22.1875 -0.55181,0.47694 -13.36791,3.08468 -28.48023,5.79499 -15.11232,2.7103 -28.04387,5.56017 -28.73678,6.33304 -0.69292,0.77288 -6.32114,10.37455 -12.50717,21.33708 -12.47717,22.1113 -16.54866,27.10922 -19.2329,23.60915 z" id="path38" style="fill:#ff6600;fill-opacity:0.528774;stroke:#ff9955;stroke-width:20.3281;stroke-linecap:round;paint-order:stroke fill markers" transform="scale(0.26458333)"></path>
      <path d="m 91.423853,378.65172 -19.653158,-22.10779 -17.17764,0.63717 c -9.447703,0.35045 -22.884383,0.90515 -29.85929,1.23269 l -12.681649,0.5955 2.31598,-3.82758 C 27.505994,333.4689 41.933893,307.8 41.804345,306.36944 41.71546,305.38792 37.385258,292.8081 32.181675,278.41428 26.978092,264.02046 22.93082,252.0335 23.18774,251.77658 c 0.256919,-0.25692 12.770948,2.21063 27.808954,5.48344 15.038006,3.27281 27.914892,6.05208 28.615302,6.17615 0.700411,0.12406 10.434265,-6.83987 21.630784,-15.47541 11.19652,-8.63554 20.94847,-16.14244 21.67099,-16.68199 0.83088,-0.62049 2.1033,0.20818 3.46228,2.25481 1.65509,2.49258 2.72664,8.97148 4.66512,28.20663 1.38408,13.73394 3.02909,25.30933 3.65556,25.7231 21.8309,14.41855 46.96358,32.35426 46.27613,33.02454 -0.50115,0.48863 -12.45242,5.93313 -26.55838,12.09889 -14.10598,6.16576 -25.81546,11.37871 -26.02108,11.58434 -0.20563,0.20562 -4.00551,12.86243 -8.44418,28.12624 -4.43867,15.2638 -8.25074,27.91208 -8.47126,28.10729 -0.22052,0.1952 -9.24487,-9.5936 -20.054107,-21.75289 z" id="path39" style="fill:#ff6600;fill-opacity:0.528774;stroke:#ff9955;stroke-width:20.3281;stroke-linecap:round;paint-order:stroke fill markers" transform="scale(0.26458333)"></path>
      <path d="m 325.04641,429.71037 c -13.50463,-8.0043 -25.08002,-14.55683 -25.7231,-14.56118 -0.64308,-0.004 -13.27078,4.36633 -28.06156,9.71261 -14.79078,5.34629 -27.03829,9.36629 -27.21669,8.93335 -0.1784,-0.43294 2.32083,-12.84083 5.55385,-27.5731 3.23302,-14.73226 5.87821,-27.61887 5.87821,-28.6369 0,-1.01803 -7.95042,-12.07187 -17.66761,-24.56408 l -17.66761,-22.71312 3.34452,-0.83681 c 1.83949,-0.46025 14.91286,-1.95305 29.05194,-3.31734 14.13907,-1.3643 26.00511,-2.66453 26.36898,-2.88941 0.36386,-0.22488 7.99356,-11.18867 16.95488,-24.36398 9.93186,-14.60225 16.62587,-23.41881 17.14508,-22.5815 0.46848,0.75549 5.90367,12.94901 12.07821,27.09671 l 11.22643,25.7231 28.63657,8.25579 28.63656,8.25579 -22.31223,19.75884 -22.31224,19.75884 0.65867,25.18541 c 0.36227,13.85198 0.90702,27.15849 1.21058,29.57003 0.30354,2.41154 0.15108,4.37464 -0.33883,4.36242 -0.48991,-0.0122 -11.93999,-6.57118 -25.44461,-14.57547 z" id="path40" style="fill:#ff6600;fill-opacity:0.528774;stroke:#ff9955;stroke-width:20.3281;stroke-linecap:round;paint-order:stroke fill markers" transform="scale(0.26458333)"></path>
    </g>
  </g>
</svg>
