<?xml version="1.0" encoding="UTF-8" standalone="no"?>
<!-- Created with Inkscape (http://www.inkscape.org/) -->

<svg
   width="149.76492mm"
   height="161.79845mm"
   viewBox="0 0 149.76492 161.79845"
   version="1.1"
   id="svg1"
   xmlns="http://www.w3.org/2000/svg"
   xmlns:svg="http://www.w3.org/2000/svg">
  <defs
     id="defs1" />
  <g
     id="layer1"
     transform="translate(-51.688923,-29.262449)">
    <g
       id="g9">
      <path
         d="m 188.16423,62.239095 c -0.63516,9.03e-4 -1.27022,0.03351 -1.90118,0.09509 -0.68572,0.06692 -1.36474,0.166307 -2.0376,0.293522 1.69171,6.557445 1.92569,13.494236 0.5674,20.130554 -10.14308,-3.07254 -21.50385,-1.888664 -30.79553,3.209106 -9.29168,5.09776 -16.39384,14.043103 -19.25206,24.248653 -1.40486,5.01618 -1.81453,10.24648 -2.51509,15.40836 -0.70057,5.16186 -1.73192,10.38189 -4.24212,14.94638 -1.25511,2.28225 -2.87761,4.37862 -4.87929,6.04511 -2.00169,1.66648 -4.39113,2.89398 -6.94686,3.39617 -2.55573,0.50217 -5.27638,0.25771 -7.64088,-0.83458 -2.3645,-1.09227 -4.34558,-3.05268 -5.32318,-5.46684 -0.20819,-0.51412 -0.37115,-1.04582 -0.58395,-1.55806 -0.86605,-2.08473 -2.54852,-3.78173 -4.539256,-4.84621 -1.99074,-1.06449 -4.273436,-1.52042 -6.530868,-1.50792 -4.514863,0.025 -8.806467,1.84658 -12.909806,3.73 -4.103329,1.88344 -8.268933,3.89096 -12.762529,4.32946 -2.246789,0.21926 -4.555031,0.0294 -6.672977,-0.7519 -2.117938,-0.78134 -4.037042,-2.17728 -5.268929,-4.069 -1.158042,-1.77832 -1.673472,-3.94365 -1.56838,-6.06319 0.0089,-0.1792 0.02188,-0.35804 0.03927,-0.53641 -2.166296,12.56595 0.666293,25.93954 7.786605,36.52388 7.398448,10.99777 19.33114,18.84246 32.360815,21.27467 13.029675,2.43221 26.988795,-0.57938 37.856605,-8.16746 10.8678,-7.58807 18.50451,-19.65471 20.71037,-32.72461 1.41296,-8.37188 0.67864,-16.95212 1.38544,-25.41292 0.3534,-4.2304 1.07594,-8.45829 2.57142,-12.43129 1.49548,-3.973 3.79431,-7.6949 6.98097,-10.49961 3.57889,-3.149938 8.10048,-5.013674 12.64161,-6.465764 4.54114,-1.4521 9.20972,-2.555515 13.58263,-4.455025 4.37292,-1.8995 8.52152,-4.708142 11.00605,-8.777242 1.24227,-2.03455 2.03789,-4.36029 2.15594,-6.74119 0.11805,-2.3809 -0.46081,-4.813344 -1.76165,-6.810954 -1.38379,-2.12499 -3.5394,-3.693091 -5.9185,-4.570781 -1.78434,-0.65826 -3.68903,-0.942704 -5.59449,-0.939994 z"
         style="fill:#000080;fill-opacity:0.996078;stroke-width:1.9;stroke-linecap:round;paint-order:stroke fill markers"
         id="path8" />
      <path
         d="m 140.50047,29.269534 c -8.84203,0.157248 -17.64625,2.931629 -24.90236,7.997962 -9.6748,6.7551 -16.473403,17.497418 -18.437113,29.132588 -1.25786,7.45286 -0.603789,15.091403 -1.232999,22.623423 -0.31461,3.76602 -0.957956,7.52964 -2.289266,11.066513 -1.331321,3.53687 -3.377759,6.85041 -6.214608,9.34724 -3.186023,2.80415 -7.211459,4.46304 -11.254093,5.75572 -4.042643,1.2927 -8.198372,2.27465 -12.091252,3.96565 -3.892889,1.69098 -7.586058,4.19157 -9.797852,7.81399 -1.105902,1.81121 -1.814688,3.88165 -1.919779,6.00119 -0.105092,2.11954 0.410338,4.28487 1.56838,6.06319 1.231887,1.89172 3.150991,3.28766 5.268929,4.069 2.117946,0.78133 4.426188,0.97116 6.672977,0.7519 4.493596,-0.4385 8.6592,-2.44602 12.762529,-4.32946 4.103339,-1.88342 8.394943,-3.70502 12.909806,-3.73 2.257432,-0.0125 4.540128,0.44343 6.530868,1.50792 1.990733,1.06448 3.673203,2.76148 4.539253,4.84621 0.2128,0.51223 0.37576,1.04393 0.58395,1.55805 0.9776,2.41417 2.95868,4.37457 5.32318,5.46685 2.3645,1.09228 5.08515,1.33674 7.64088,0.83457 2.55573,-0.50219 4.94517,-1.72969 6.94686,-3.39617 2.00168,-1.66648 3.62418,-3.76286 4.87929,-6.04511 2.5102,-4.56449 3.54155,-9.78451 4.24212,-14.94638 0.70056,-5.16188 1.11023,-10.39218 2.51509,-15.40836 2.85822,-10.20555 9.96038,-19.150893 19.25206,-24.248653 9.29168,-5.09777 20.65245,-6.28165 30.79553,-3.20911 2.36606,-11.560068 -0.0991,-24.031699 -6.68538,-33.822223 -6.5863,-9.790505 -17.20921,-16.774195 -28.80857,-18.939412 -2.89984,-0.541305 -5.85109,-0.779504 -8.79843,-0.727088 z"
         style="fill:#0000ff;fill-opacity:0.996078;stroke-width:1.69143;stroke-linecap:round;paint-order:stroke fill markers"
         id="path7-3" />
      <path
         id="path7"
         style="fill:#ff9955;fill-opacity:0.996078;stroke-width:1.69143;stroke-linecap:round;paint-order:stroke fill markers"
         d="m 140.50047,29.269531 c -8.84203,0.157248 -17.64625,2.931629 -24.90236,7.997962 -6.9625,4.861327 -12.43565,11.787682 -15.688963,19.625675 58.764603,-9.928465 84.883703,25.865088 84.883703,25.865088 2.36606,-11.56007 -0.0991,-24.031701 -6.68538,-33.822225 -6.5863,-9.790505 -17.20921,-16.774195 -28.80857,-18.939412 -2.89984,-0.541305 -5.85109,-0.779504 -8.79843,-0.727088 z" />
    </g>
  </g>
</svg>
